<?xml version="1.0" encoding="UTF-8" standalone="no"?>
<!DOCTYPE score-partwise PUBLIC "-//Recordare//DTD MusicXML 3.1 Partwise//EN" "http://www.musicxml.org/dtds/partwise.dtd">
<score-partwise version="3.1">
  <work>
    <work-title>Les Souvenirs du Vent</work-title>
  </work>
  <identification>
    <creator type="composer">GPT-5.2-Codex</creator>
    <encoding>
      <software>MuseScore-compatible MusicXML</software>
      <encoding-date>2026-02-22</encoding-date>
    </encoding>
  </identification>
  <part-list>
    <score-part id="P1"><part-name>Vocal Lead</part-name></score-part>
    <score-part id="P2"><part-name>Piano RH</part-name></score-part>
    <score-part id="P3"><part-name>Piano LH</part-name></score-part>
    <score-part id="P4"><part-name>Acoustic Guitar</part-name></score-part>
    <score-part id="P5"><part-name>Cello</part-name></score-part>
    <score-part id="P6"><part-name>Violin</part-name></score-part>
  </part-list>
  <part id="P1">
    <measure number="1">
      <attributes>
        <divisions>2</divisions>
        <key><fifths>1</fifths></key>
        <time><beats>4</beats><beat-type>4</beat-type></time>
        <clef><sign>G</sign><line>2</line></clef>
      </attributes>
      <direction placement="above"><direction-type><metronome><beat-unit>quarter</beat-unit><per-minute>82</per-minute></metronome></direction-type><sound tempo="82"/></direction>
      <direction placement="above"><direction-type><words>Verse — intime, rubato</words></direction-type></direction>
      <note><rest/><duration>8</duration><type>whole</type></note>
    </measure>
    <measure number="2"><note><rest/><duration>8</duration><type>whole</type></note></measure>
    <measure number="3">
      <note><pitch><step>G</step><octave>3</octave></pitch><duration>3</duration><type>quarter</type><dot/><lyric><text>Dans la</text></lyric></note>
      <note><pitch><step>A</step><octave>3</octave></pitch><duration>1</duration><type>eighth</type><lyric><text>ville</text></lyric></note>
      <note><rest/><duration>2</duration><type>quarter</type></note>
      <note><pitch><step>B</step><octave>3</octave></pitch><duration>2</duration><type>quarter</type><lyric><text>je</text></lyric></note>
    </measure>
    <measure number="4">
      <note><pitch><step>A</step><octave>3</octave></pitch><duration>2</duration><type>quarter</type><lyric><text>marche</text></lyric></note>
      <note><pitch><step>G</step><octave>3</octave></pitch><duration>2</duration><type>quarter</type><lyric><text>sans</text></lyric></note>
      <note><pitch><step>A</step><octave>3</octave></pitch><duration>2</duration><type>quarter</type><lyric><text>bruit</text></lyric></note>
      <note><rest/><duration>2</duration><type>quarter</type></note>
    </measure>
    <measure number="5">
      <note><pitch><step>B</step><octave>3</octave></pitch><duration>2</duration><type>quarter</type><lyric><text>Le</text></lyric></note>
      <note><pitch><step>C</step><octave>4</octave></pitch><duration>2</duration><type>quarter</type><lyric><text>so</text></lyric></note>
      <note><pitch><step>D</step><octave>4</octave></pitch><duration>4</duration><type>half</type><lyric><text>leil</text></lyric></note>
    </measure>
    <measure number="6">
      <note><pitch><step>C</step><octave>4</octave></pitch><duration>2</duration><type>quarter</type><lyric><text>sur</text></lyric></note>
      <note><pitch><step>B</step><octave>3</octave></pitch><duration>2</duration><type>quarter</type><lyric><text>nos</text></lyric></note>
      <note><pitch><step>A</step><octave>3</octave></pitch><duration>2</duration><type>quarter</type><lyric><text>pas</text></lyric></note>
      <note><rest/><duration>2</duration><type>quarter</type></note>
    </measure>
    <measure number="7"><direction placement="above"><direction-type><words>Chorus — lift</words></direction-type></direction>
      <note><pitch><step>G</step><octave>3</octave></pitch><duration>2</duration><type>quarter</type><lyric><text>Le</text></lyric></note>
      <note><pitch><step>D</step><octave>4</octave></pitch><duration>2</duration><type>quarter</type><lyric><text>vent</text></lyric></note>
      <note><pitch><step>G</step><octave>4</octave></pitch><duration>4</duration><type>half</type><lyric><text>nous</text></lyric></note>
    </measure>
    <measure number="8">
      <note><pitch><step>E</step><octave>4</octave></pitch><duration>2</duration><type>quarter</type><lyric><text>por</text></lyric></note>
      <note><pitch><step>B</step><octave>3</octave></pitch><duration>2</duration><type>quarter</type><lyric><text>te</text></lyric></note>
      <note><pitch><step>D</step><octave>4</octave></pitch><duration>4</duration><type>half</type><lyric><text>loin</text></lyric></note>
    </measure>
    <measure number="9">
      <note><pitch><step>C</step><octave>4</octave></pitch><duration>2</duration><type>quarter</type><lyric><text>des jours</text></lyric></note>
      <note><pitch><step>B</step><octave>3</octave></pitch><duration>2</duration><type>quarter</type><lyric><text>ou</text></lyric></note>
      <note><rest/><duration>4</duration><type>half</type></note>
    </measure>
    <measure number="10">
      <note><pitch><step>A</step><octave>3</octave></pitch><duration>2</duration><type>quarter</type><lyric><text>blés</text></lyric></note>
      <note><pitch><step>D</step><octave>4</octave></pitch><duration>2</duration><type>quarter</type><lyric><text>ou</text></lyric></note>
      <note><pitch><step>G</step><octave>4</octave></pitch><duration>4</duration><type>half</type><lyric><text>bliés</text></lyric></note>
    </measure>
    <measure number="11"><direction placement="above"><direction-type><words>Verse 2</words></direction-type></direction>
      <note><pitch><step>B</step><octave>3</octave></pitch><duration>3</duration><type>quarter</type><dot/><lyric><text>Dans la</text></lyric></note>
      <note><pitch><step>C</step><octave>4</octave></pitch><duration>1</duration><type>eighth</type><lyric><text>ville</text></lyric></note>
      <note><rest/><duration>2</duration><type>quarter</type></note>
      <note><pitch><step>B</step><octave>3</octave></pitch><duration>2</duration><type>quarter</type><lyric><text>nos</text></lyric></note>
    </measure>
    <measure number="12">
      <note><pitch><step>A</step><octave>3</octave></pitch><duration>2</duration><type>quarter</type><lyric><text>noms</text></lyric></note>
      <note><pitch><step>G</step><octave>3</octave></pitch><duration>2</duration><type>quarter</type><lyric><text>res</text></lyric></note>
      <note><pitch><step>A</step><octave>3</octave></pitch><duration>2</duration><type>quarter</type><lyric><text>tent</text></lyric></note>
      <note><rest/><duration>2</duration><type>quarter</type></note>
    </measure>
    <measure number="13">
      <note><pitch><step>B</step><octave>3</octave></pitch><duration>2</duration><type>quarter</type><lyric><text>J'ap</text></lyric></note>
      <note><pitch><step>C</step><octave>4</octave></pitch><duration>2</duration><type>quarter</type><lyric><text>prends</text></lyric></note>
      <note><pitch><step>D</step><octave>4</octave></pitch><duration>4</duration><type>half</type><lyric><text>à</text></lyric></note>
    </measure>
    <measure number="14">
      <note><pitch><step>C</step><octave>4</octave></pitch><duration>2</duration><type>quarter</type><lyric><text>t'ai</text></lyric></note>
      <note><pitch><step>B</step><octave>3</octave></pitch><duration>2</duration><type>quarter</type><lyric><text>mer</text></lyric></note>
      <note><rest/><duration>4</duration><type>half</type></note>
    </measure>
    <measure number="15"><direction placement="above"><direction-type><words>Bridge — quieter then rise</words></direction-type></direction>
      <direction placement="above"><direction-type><dynamics><p/></dynamics></direction-type></direction>
      <note><pitch><step>B</step><octave>3</octave></pitch><duration>2</duration><type>quarter</type><lyric><text>Et</text></lyric></note>
      <note><pitch><step>D</step><octave>4</octave></pitch><duration>2</duration><type>quarter</type><lyric><text>si</text></lyric></note>
      <note><pitch><step>G</step><octave>4</octave></pitch><duration>2</duration><type>quarter</type><lyric><text>la</text></lyric></note>
      <note><pitch><step>A</step><octave>4</octave></pitch><duration>2</duration><type>quarter</type><lyric><text>nuit</text></lyric></note>
    </measure>
    <measure number="16">
      <direction placement="above"><direction-type><dynamics><mp/></dynamics></direction-type></direction>
      <note><pitch><step>B</step><octave>4</octave></pitch><duration>2</duration><type>quarter</type><lyric><text>me</text></lyric></note>
      <note><pitch><step>C</step><octave>5</octave></pitch><duration>2</duration><type>quarter</type><lyric><text>gar</text></lyric></note>
      <note><pitch><step>D</step><octave>5</octave></pitch><duration>4</duration><type>half</type><lyric><text>de</text></lyric></note>
    </measure>
    <measure number="17"><direction placement="above"><direction-type><words>Final chorus — broader</words></direction-type></direction>
      <direction placement="above"><direction-type><dynamics><mf/></dynamics></direction-type></direction>
      <note><pitch><step>G</step><octave>4</octave></pitch><duration>2</duration><type>quarter</type><lyric><text>Le</text></lyric></note>
      <note><pitch><step>D</step><octave>5</octave></pitch><duration>2</duration><type>quarter</type><lyric><text>vent</text></lyric></note>
      <note><pitch><step>G</step><octave>4</octave></pitch><duration>4</duration><type>half</type><lyric><text>nous</text></lyric></note>
    </measure>
    <measure number="18">
      <note><pitch><step>E</step><octave>4</octave></pitch><duration>2</duration><type>quarter</type><lyric><text>por</text></lyric></note>
      <note><pitch><step>B</step><octave>3</octave></pitch><duration>2</duration><type>quarter</type><lyric><text>te</text></lyric></note>
      <note><pitch><step>D</step><octave>4</octave></pitch><duration>4</duration><type>half</type><lyric><text>encor</text></lyric></note>
    </measure>
    <measure number="19">
      <note><pitch><step>C</step><octave>4</octave></pitch><duration>2</duration><type>quarter</type><lyric><text>e, vers</text></lyric></note>
      <note><pitch><step>B</step><octave>3</octave></pitch><duration>2</duration><type>quarter</type><lyric><text>toi</text></lyric></note>
      <note><rest/><duration>4</duration><type>half</type></note>
    </measure>
    <measure number="20">
      <note><pitch><step>A</step><octave>3</octave></pitch><duration>2</duration><type>quarter</type><lyric><text>je</text></lyric></note>
      <note><pitch><step>D</step><octave>4</octave></pitch><duration>2</duration><type>quarter</type><lyric><text>res</text></lyric></note>
      <note><pitch><step>G</step><octave>4</octave></pitch><duration>4</duration><type>half</type><lyric><text>te</text></lyric></note>
      <barline location="right"><bar-style>light-heavy</bar-style></barline>
    </measure>
  </part>
  <part id="P2">
    <measure number="1"><attributes><divisions>2</divisions><key><fifths>1</fifths></key><time><beats>4</beats><beat-type>4</beat-type></time><clef><sign>G</sign><line>2</line></clef></attributes><note><rest/><duration>8</duration><type>whole</type></note></measure>
    <measure number="2"><note><pitch><step>B</step><octave>4</octave></pitch><duration>2</duration><type>quarter</type><notehead>normal</notehead></note><note><rest/><duration>2</duration><type>quarter</type></note><note><pitch><step>D</step><octave>5</octave></pitch><duration>2</duration><type>quarter</type></note><note><pitch><step>G</step><octave>5</octave></pitch><duration>2</duration><type>quarter</type></note></measure>
    <measure number="3"><note><pitch><step>B</step><octave>4</octave></pitch><duration>1</duration><type>eighth</type></note><note><pitch><step>D</step><octave>5</octave></pitch><duration>1</duration><type>eighth</type></note><note><rest/><duration>2</duration><type>quarter</type></note><note><pitch><step>G</step><octave>4</octave></pitch><duration>2</duration><type>quarter</type></note><note><pitch><step>A</step><octave>4</octave></pitch><duration>2</duration><type>quarter</type></note></measure>
    <measure number="4"><note><pitch><step>C</step><octave>5</octave></pitch><duration>2</duration><type>quarter</type></note><note><pitch><step>A</step><octave>4</octave></pitch><duration>2</duration><type>quarter</type></note><note><rest/><duration>2</duration><type>quarter</type></note><note><pitch><step>B</step><octave>4</octave></pitch><duration>2</duration><type>quarter</type></note></measure>
    <measure number="5"><note><pitch><step>D</step><octave>5</octave></pitch><duration>3</duration><type>quarter</type><dot/></note><note><pitch><step>G</step><octave>5</octave></pitch><duration>1</duration><type>eighth</type></note><note><rest/><duration>2</duration><type>quarter</type></note><note><pitch><step>B</step><octave>4</octave></pitch><duration>2</duration><type>quarter</type></note></measure>
    <measure number="6"><note><pitch><step>A</step><octave>4</octave></pitch><duration>2</duration><type>quarter</type></note><note><pitch><step>G</step><octave>4</octave></pitch><duration>2</duration><type>quarter</type></note><note><rest/><duration>2</duration><type>quarter</type></note><note><pitch><step>D</step><octave>5</octave></pitch><duration>2</duration><type>quarter</type></note></measure>
    <measure number="7"><note><pitch><step>G</step><octave>5</octave></pitch><duration>2</duration><type>quarter</type></note><note><pitch><step>D</step><octave>5</octave></pitch><duration>2</duration><type>quarter</type></note><note><pitch><step>B</step><octave>4</octave></pitch><duration>4</duration><type>half</type></note></measure>
    <measure number="8"><note><pitch><step>E</step><octave>5</octave></pitch><duration>2</duration><type>quarter</type></note><note><pitch><step>B</step><octave>4</octave></pitch><duration>2</duration><type>quarter</type></note><note><pitch><step>D</step><octave>5</octave></pitch><duration>4</duration><type>half</type></note></measure>
    <measure number="9"><note><pitch><step>C</step><octave>5</octave></pitch><duration>2</duration><type>quarter</type></note><note><rest/><duration>2</duration><type>quarter</type></note><note><rest/><duration>4</duration><type>half</type></note></measure>
    <measure number="10"><note><pitch><step>A</step><octave>4</octave></pitch><duration>2</duration><type>quarter</type></note><note><pitch><step>D</step><octave>5</octave></pitch><duration>2</duration><type>quarter</type></note><note><pitch><step>G</step><octave>5</octave></pitch><duration>4</duration><type>half</type></note></measure>
    <measure number="11"><note><pitch><step>B</step><octave>4</octave></pitch><duration>1</duration><type>eighth</type></note><note><pitch><step>D</step><octave>5</octave></pitch><duration>1</duration><type>eighth</type></note><note><rest/><duration>2</duration><type>quarter</type></note><note><pitch><step>G</step><octave>4</octave></pitch><duration>2</duration><type>quarter</type></note><note><pitch><step>A</step><octave>4</octave></pitch><duration>2</duration><type>quarter</type></note></measure>
    <measure number="12"><note><pitch><step>C</step><octave>5</octave></pitch><duration>2</duration><type>quarter</type></note><note><pitch><step>A</step><octave>4</octave></pitch><duration>2</duration><type>quarter</type></note><note><rest/><duration>2</duration><type>quarter</type></note><note><pitch><step>B</step><octave>4</octave></pitch><duration>2</duration><type>quarter</type></note></measure>
    <measure number="13"><note><pitch><step>D</step><octave>5</octave></pitch><duration>3</duration><type>quarter</type><dot/></note><note><pitch><step>G</step><octave>5</octave></pitch><duration>1</duration><type>eighth</type></note><note><rest/><duration>4</duration><type>half</type></note></measure>
    <measure number="14"><note><pitch><step>E</step><octave>5</octave></pitch><duration>2</duration><type>quarter</type></note><note><pitch><step>D</step><octave>5</octave></pitch><duration>2</duration><type>quarter</type></note><note><rest/><duration>4</duration><type>half</type></note></measure>
    <measure number="15"><note><pitch><step>G</step><octave>4</octave></pitch><duration>2</duration><type>quarter</type></note><note><pitch><step>B</step><octave>4</octave></pitch><duration>2</duration><type>quarter</type></note><note><pitch><step>D</step><octave>5</octave></pitch><duration>4</duration><type>half</type></note></measure>
    <measure number="16"><note><pitch><step>A</step><octave>4</octave></pitch><duration>2</duration><type>quarter</type></note><note><pitch><step>C</step><octave>5</octave></pitch><duration>2</duration><type>quarter</type></note><note><pitch><step>D</step><octave>5</octave></pitch><duration>4</duration><type>half</type></note></measure>
    <measure number="17"><note><pitch><step>G</step><octave>5</octave></pitch><duration>2</duration><type>quarter</type></note><note><pitch><step>D</step><octave>5</octave></pitch><duration>2</duration><type>quarter</type></note><note><pitch><step>B</step><octave>4</octave></pitch><duration>4</duration><type>half</type></note></measure>
    <measure number="18"><note><pitch><step>E</step><octave>5</octave></pitch><duration>2</duration><type>quarter</type></note><note><pitch><step>B</step><octave>4</octave></pitch><duration>2</duration><type>quarter</type></note><note><pitch><step>D</step><octave>5</octave></pitch><duration>4</duration><type>half</type></note></measure>
    <measure number="19"><note><pitch><step>C</step><octave>5</octave></pitch><duration>2</duration><type>quarter</type></note><note><rest/><duration>2</duration><type>quarter</type></note><note><rest/><duration>4</duration><type>half</type></note></measure>
    <measure number="20"><note><pitch><step>A</step><octave>4</octave></pitch><duration>2</duration><type>quarter</type></note><note><pitch><step>D</step><octave>5</octave></pitch><duration>2</duration><type>quarter</type></note><note><pitch><step>G</step><octave>5</octave></pitch><duration>4</duration><type>half</type></note></measure>
  </part>
  <part id="P3">
    <measure number="1"><attributes><divisions>2</divisions><key><fifths>1</fifths></key><time><beats>4</beats><beat-type>4</beat-type></time><clef><sign>F</sign><line>4</line></clef></attributes><note><pitch><step>G</step><octave>2</octave></pitch><duration>8</duration><type>whole</type></note></measure>
    <measure number="2"><note><pitch><step>D</step><octave>2</octave></pitch><duration>8</duration><type>whole</type></note></measure>
    <measure number="3"><note><pitch><step>G</step><octave>2</octave></pitch><duration>4</duration><type>half</type></note><note><rest/><duration>2</duration><type>quarter</type></note><note><pitch><step>D</step><octave>3</octave></pitch><duration>2</duration><type>quarter</type></note></measure>
    <measure number="4"><note><pitch><step>A</step><octave>2</octave></pitch><duration>4</duration><type>half</type></note><note><pitch><step>E</step><octave>3</octave></pitch><duration>4</duration><type>half</type></note></measure>
    <measure number="5"><note><pitch><step>G</step><octave>2</octave></pitch><duration>8</duration><type>whole</type></note></measure>
    <measure number="6"><note><pitch><step>D</step><octave>2</octave></pitch><duration>8</duration><type>whole</type></note></measure>
    <measure number="7"><note><pitch><step>E</step><octave>2</octave></pitch><duration>8</duration><type>whole</type></note></measure>
    <measure number="8"><note><pitch><step>C</step><octave>3</octave></pitch><duration>8</duration><type>whole</type></note></measure>
    <measure number="9"><note><pitch><step>D</step><octave>2</octave></pitch><duration>8</duration><type>whole</type></note></measure>
    <measure number="10"><note><pitch><step>G</step><octave>2</octave></pitch><duration>8</duration><type>whole</type></note></measure>
    <measure number="11"><note><pitch><step>G</step><octave>2</octave></pitch><duration>4</duration><type>half</type></note><note><rest/><duration>2</duration><type>quarter</type></note><note><pitch><step>D</step><octave>3</octave></pitch><duration>2</duration><type>quarter</type></note></measure>
    <measure number="12"><note><pitch><step>A</step><octave>2</octave></pitch><duration>4</duration><type>half</type></note><note><pitch><step>E</step><octave>3</octave></pitch><duration>4</duration><type>half</type></note></measure>
    <measure number="13"><note><pitch><step>G</step><octave>2</octave></pitch><duration>8</duration><type>whole</type></note></measure>
    <measure number="14"><note><pitch><step>D</step><octave>2</octave></pitch><duration>8</duration><type>whole</type></note></measure>
    <measure number="15"><note><pitch><step>E</step><octave>2</octave></pitch><duration>8</duration><type>whole</type></note></measure>
    <measure number="16"><note><pitch><step>C</step><octave>3</octave></pitch><duration>8</duration><type>whole</type></note></measure>
    <measure number="17"><note><pitch><step>E</step><octave>2</octave></pitch><duration>8</duration><type>whole</type></note></measure>
    <measure number="18"><note><pitch><step>C</step><octave>3</octave></pitch><duration>8</duration><type>whole</type></note></measure>
    <measure number="19"><note><pitch><step>D</step><octave>2</octave></pitch><duration>8</duration><type>whole</type></note></measure>
    <measure number="20"><note><pitch><step>G</step><octave>2</octave></pitch><duration>8</duration><type>whole</type></note></measure>
  </part>
  <part id="P4">
    <measure number="1"><attributes><divisions>2</divisions><key><fifths>1</fifths></key><time><beats>4</beats><beat-type>4</beat-type></time><clef><sign>G</sign><line>2</line></clef></attributes><note><rest/><duration>8</duration><type>whole</type></note></measure>
    <measure number="2"><note><rest/><duration>8</duration><type>whole</type></note></measure>
    <measure number="3"><note><pitch><step>G</step><octave>3</octave></pitch><duration>2</duration><type>quarter</type></note><note><rest/><duration>2</duration><type>quarter</type></note><note><pitch><step>B</step><octave>3</octave></pitch><duration>2</duration><type>quarter</type></note><note><pitch><step>D</step><octave>4</octave></pitch><duration>2</duration><type>quarter</type></note></measure>
    <measure number="4"><note><pitch><step>A</step><octave>3</octave></pitch><duration>2</duration><type>quarter</type></note><note><pitch><step>C</step><octave>4</octave></pitch><duration>2</duration><type>quarter</type></note><note><rest/><duration>2</duration><type>quarter</type></note><note><pitch><step>E</step><octave>4</octave></pitch><duration>2</duration><type>quarter</type></note></measure>
    <measure number="5"><note><pitch><step>G</step><octave>3</octave></pitch><duration>8</duration><type>whole</type></note></measure>
    <measure number="6"><note><pitch><step>D</step><octave>3</octave></pitch><duration>8</duration><type>whole</type></note></measure>
    <measure number="7"><note><pitch><step>E</step><octave>3</octave></pitch><duration>8</duration><type>whole</type></note></measure>
    <measure number="8"><note><pitch><step>C</step><octave>4</octave></pitch><duration>8</duration><type>whole</type></note></measure>
    <measure number="9"><note><rest/><duration>8</duration><type>whole</type></note></measure>
    <measure number="10"><note><pitch><step>G</step><octave>3</octave></pitch><duration>8</duration><type>whole</type></note></measure>
    <measure number="11"><note><pitch><step>G</step><octave>3</octave></pitch><duration>2</duration><type>quarter</type></note><note><rest/><duration>2</duration><type>quarter</type></note><note><pitch><step>B</step><octave>3</octave></pitch><duration>2</duration><type>quarter</type></note><note><pitch><step>D</step><octave>4</octave></pitch><duration>2</duration><type>quarter</type></note></measure>
    <measure number="12"><note><pitch><step>A</step><octave>3</octave></pitch><duration>2</duration><type>quarter</type></note><note><pitch><step>C</step><octave>4</octave></pitch><duration>2</duration><type>quarter</type></note><note><rest/><duration>2</duration><type>quarter</type></note><note><pitch><step>E</step><octave>4</octave></pitch><duration>2</duration><type>quarter</type></note></measure>
    <measure number="13"><note><pitch><step>G</step><octave>3</octave></pitch><duration>8</duration><type>whole</type></note></measure>
    <measure number="14"><note><rest/><duration>8</duration><type>whole</type></note></measure>
    <measure number="15"><note><pitch><step>E</step><octave>3</octave></pitch><duration>8</duration><type>whole</type></note></measure>
    <measure number="16"><note><pitch><step>C</step><octave>4</octave></pitch><duration>8</duration><type>whole</type></note></measure>
    <measure number="17"><note><pitch><step>E</step><octave>3</octave></pitch><duration>8</duration><type>whole</type></note></measure>
    <measure number="18"><note><pitch><step>C</step><octave>4</octave></pitch><duration>8</duration><type>whole</type></note></measure>
    <measure number="19"><note><rest/><duration>8</duration><type>whole</type></note></measure>
    <measure number="20"><note><pitch><step>G</step><octave>3</octave></pitch><duration>8</duration><type>whole</type></note></measure>
  </part>
  <part id="P5">
    <measure number="1"><attributes><divisions>2</divisions><key><fifths>1</fifths></key><time><beats>4</beats><beat-type>4</beat-type></time><clef><sign>F</sign><line>4</line></clef></attributes><direction placement="below"><direction-type><dynamics><mp/></dynamics></direction-type></direction><note><pitch><step>G</step><octave>2</octave></pitch><duration>8</duration><type>whole</type></note></measure>
    <measure number="2"><note><pitch><step>D</step><octave>2</octave></pitch><duration>8</duration><type>whole</type></note></measure>
    <measure number="3"><note><pitch><step>G</step><octave>2</octave></pitch><duration>8</duration><type>whole</type></note></measure>
    <measure number="4"><note><pitch><step>A</step><octave>2</octave></pitch><duration>8</duration><type>whole</type></note></measure>
    <measure number="5"><direction placement="below"><direction-type><dynamics><mf/></dynamics></direction-type></direction><note><pitch><step>B</step><octave>2</octave></pitch><duration>8</duration><type>whole</type></note></measure>
    <measure number="6"><note><pitch><step>A</step><octave>2</octave></pitch><duration>8</duration><type>whole</type></note></measure>
    <measure number="7"><note><pitch><step>G</step><octave>2</octave></pitch><duration>8</duration><type>whole</type></note></measure>
    <measure number="8"><note><pitch><step>C</step><octave>3</octave></pitch><duration>8</duration><type>whole</type></note></measure>
    <measure number="9"><note><pitch><step>D</step><octave>3</octave></pitch><duration>8</duration><type>whole</type></note></measure>
    <measure number="10"><note><pitch><step>G</step><octave>2</octave></pitch><duration>8</duration><type>whole</type></note></measure>
    <measure number="11"><note><pitch><step>G</step><octave>2</octave></pitch><duration>8</duration><type>whole</type></note></measure>
    <measure number="12"><note><pitch><step>A</step><octave>2</octave></pitch><duration>8</duration><type>whole</type></note></measure>
    <measure number="13"><note><pitch><step>B</step><octave>2</octave></pitch><duration>8</duration><type>whole</type></note></measure>
    <measure number="14"><note><pitch><step>G</step><octave>2</octave></pitch><duration>8</duration><type>whole</type></note></measure>
    <measure number="15"><direction placement="below"><direction-type><dynamics><p/></dynamics></direction-type></direction><note><pitch><step>E</step><octave>2</octave></pitch><duration>8</duration><type>whole</type></note></measure>
    <measure number="16"><direction placement="below"><direction-type><dynamics><mp/></dynamics></direction-type></direction><note><pitch><step>F</step><alter>1</alter><octave>2</octave></pitch><duration>8</duration><type>whole</type></note></measure>
    <measure number="17"><direction placement="below"><direction-type><dynamics><mf/></dynamics></direction-type></direction><note><pitch><step>G</step><octave>2</octave></pitch><duration>8</duration><type>whole</type></note></measure>
    <measure number="18"><note><pitch><step>C</step><octave>3</octave></pitch><duration>8</duration><type>whole</type></note></measure>
    <measure number="19"><note><pitch><step>D</step><octave>3</octave></pitch><duration>8</duration><type>whole</type></note></measure>
    <measure number="20"><note><pitch><step>G</step><octave>2</octave></pitch><duration>8</duration><type>whole</type></note></measure>
  </part>
  <part id="P6">
    <measure number="1"><attributes><divisions>2</divisions><key><fifths>1</fifths></key><time><beats>4</beats><beat-type>4</beat-type></time><clef><sign>G</sign><line>2</line></clef></attributes><note><rest/><duration>8</duration><type>whole</type></note></measure>
    <measure number="2"><note><rest/><duration>8</duration><type>whole</type></note></measure>
    <measure number="3"><note><rest/><duration>8</duration><type>whole</type></note></measure>
    <measure number="4"><note><rest/><duration>8</duration><type>whole</type></note></measure>
    <measure number="5"><note><rest/><duration>8</duration><type>whole</type></note></measure>
    <measure number="6"><note><rest/><duration>8</duration><type>whole</type></note></measure>
    <measure number="7"><note><rest/><duration>8</duration><type>whole</type></note></measure>
    <measure number="8"><note><rest/><duration>8</duration><type>whole</type></note></measure>
    <measure number="9"><note><rest/><duration>8</duration><type>whole</type></note></measure>
    <measure number="10"><note><rest/><duration>8</duration><type>whole</type></note></measure>
    <measure number="11"><note><rest/><duration>8</duration><type>whole</type></note></measure>
    <measure number="12"><note><rest/><duration>8</duration><type>whole</type></note></measure>
    <measure number="13"><note><rest/><duration>8</duration><type>whole</type></note></measure>
    <measure number="14"><note><rest/><duration>8</duration><type>whole</type></note></measure>
    <measure number="15"><note><rest/><duration>8</duration><type>whole</type></note></measure>
    <measure number="16"><note><rest/><duration>8</duration><type>whole</type></note></measure>
    <measure number="17"><note><pitch><step>D</step><octave>5</octave></pitch><duration>8</duration><type>whole</type></note></measure>
    <measure number="18"><note><pitch><step>E</step><octave>5</octave></pitch><duration>8</duration><type>whole</type></note></measure>
    <measure number="19"><note><rest/><duration>8</duration><type>whole</type></note></measure>
    <measure number="20"><note><pitch><step>D</step><octave>5</octave></pitch><duration>8</duration><type>whole</type></note></measure>
  </part>
</score-partwise>
