<?xml version="1.0" encoding="UTF-8" standalone="no"?>
<!DOCTYPE score-partwise PUBLIC "-//Recordare//DTD MusicXML 3.1 Partwise//EN"
  "http://www.musicxml.org/dtds/partwise.dtd">
<score-partwise version="3.1">
  <work><work-title>Les Souvenirs du Vent</work-title></work>
  <identification>
    <creator type="composer">GPT-5.2-Codex</creator>
    <encoding><software>MuseScore-compatible MusicXML</software></encoding>
  </identification>
  <part-list>
    <score-part id="P1"><part-name>Vocal Lead</part-name></score-part>
    <score-part id="P2"><part-name>Piano RH</part-name></score-part>
    <score-part id="P3"><part-name>Piano LH</part-name></score-part>
    <score-part id="P4"><part-name>Acoustic Guitar</part-name></score-part>
    <score-part id="P5"><part-name>Cello</part-name></score-part>
    <score-part id="P6"><part-name>Violin</part-name></score-part>
  </part-list>

  <part id="P1">
    <measure number="1">
      <attributes><divisions>1</divisions><key><fifths>1</fifths></key><time><beats>4</beats><beat-type>4</beat-type></time><clef><sign>G</sign><line>2</line></clef></attributes>
      <direction placement="above"><direction-type><metronome><beat-unit>quarter</beat-unit><per-minute>84</per-minute></metronome></direction-type><sound tempo="84"/></direction>
      <direction placement="above"><direction-type><words>Intro (piano + cello, minimal)</words></direction-type></direction>
      <note><rest/><duration>4</duration><type>whole</type></note>
    </measure>
    <measure number="2"><note><rest/><duration>4</duration><type>whole</type></note></measure>
    <measure number="3"><direction placement="above"><direction-type><words>Verse 1 (intime)</words></direction-type></direction>
      <note><pitch><step>G</step><octave>3</octave></pitch><duration>1</duration><type>quarter</type><lyric><text>Dans</text></lyric></note>
      <note><pitch><step>A</step><octave>3</octave></pitch><duration>1</duration><type>quarter</type><lyric><text>la</text></lyric></note>
      <note><pitch><step>B</step><octave>3</octave></pitch><duration>1</duration><type>quarter</type><lyric><text>ville</text></lyric></note>
      <note><pitch><step>A</step><octave>3</octave></pitch><duration>1</duration><type>quarter</type><lyric><text>en</text></lyric></note>
    </measure>
    <measure number="4">
      <note><pitch><step>G</step><octave>3</octave></pitch><duration>1</duration><type>quarter</type><lyric><text>pluie</text></lyric></note>
      <note><pitch><step>A</step><octave>3</octave></pitch><duration>1</duration><type>quarter</type><lyric><text>je</text></lyric></note>
      <note><pitch><step>B</step><octave>3</octave></pitch><duration>1</duration><type>quarter</type><lyric><text>te</text></lyric></note>
      <note><pitch><step>C</step><octave>4</octave></pitch><duration>1</duration><type>quarter</type><lyric><text>vois</text></lyric></note>
    </measure>
    <measure number="5"><direction placement="above"><direction-type><words>Chorus (lift)</words></direction-type></direction>
      <note><pitch><step>G</step><octave>3</octave></pitch><duration>1</duration><type>quarter</type><lyric><text>Les</text></lyric></note>
      <note><pitch><step>D</step><octave>4</octave></pitch><duration>1</duration><type>quarter</type><lyric><text>sou</text></lyric></note>
      <note><pitch><step>B</step><octave>3</octave></pitch><duration>1</duration><type>quarter</type><lyric><text>ve</text></lyric></note>
      <note><pitch><step>E</step><octave>4</octave></pitch><duration>1</duration><type>quarter</type><lyric><text>nirs</text></lyric></note>
    </measure>
    <measure number="6">
      <note><pitch><step>D</step><octave>4</octave></pitch><duration>1</duration><type>quarter</type><lyric><text>du</text></lyric></note>
      <note><pitch><step>G</step><octave>4</octave></pitch><duration>1</duration><type>quarter</type><lyric><text>vent</text></lyric></note>
      <note><pitch><step>E</step><octave>4</octave></pitch><duration>1</duration><type>quarter</type><lyric><text>me</text></lyric></note>
      <note><pitch><step>D</step><octave>4</octave></pitch><duration>1</duration><type>quarter</type><lyric><text>prennent</text></lyric></note>
    </measure>
    <measure number="7"><direction placement="above"><direction-type><words>Verse 2</words></direction-type></direction>
      <note><pitch><step>A</step><octave>3</octave></pitch><duration>1</duration><type>quarter</type><lyric><text>Sur</text></lyric></note>
      <note><pitch><step>B</step><octave>3</octave></pitch><duration>1</duration><type>quarter</type><lyric><text>les</text></lyric></note>
      <note><pitch><step>C</step><octave>4</octave></pitch><duration>1</duration><type>quarter</type><lyric><text>quais</text></lyric></note>
      <note><pitch><step>B</step><octave>3</octave></pitch><duration>1</duration><type>quarter</type><lyric><text>du</text></lyric></note>
    </measure>
    <measure number="8">
      <note><pitch><step>A</step><octave>3</octave></pitch><duration>1</duration><type>quarter</type><lyric><text>soir</text></lyric></note>
      <note><pitch><step>B</step><octave>3</octave></pitch><duration>1</duration><type>quarter</type><lyric><text>ta</text></lyric></note>
      <note><pitch><step>C</step><octave>4</octave></pitch><duration>1</duration><type>quarter</type><lyric><text>voix</text></lyric></note>
      <note><pitch><step>D</step><octave>4</octave></pitch><duration>1</duration><type>quarter</type><lyric><text>revient</text></lyric></note>
    </measure>
    <measure number="9"><direction placement="above"><direction-type><words>Chorus + violin entry</words></direction-type></direction>
      <note><pitch><step>G</step><octave>3</octave></pitch><duration>1</duration><type>quarter</type><lyric><text>Les</text></lyric></note>
      <note><pitch><step>D</step><octave>4</octave></pitch><duration>1</duration><type>quarter</type><lyric><text>sou</text></lyric></note>
      <note><pitch><step>B</step><octave>3</octave></pitch><duration>1</duration><type>quarter</type><lyric><text>ve</text></lyric></note>
      <note><pitch><step>E</step><octave>4</octave></pitch><duration>1</duration><type>quarter</type><lyric><text>nirs</text></lyric></note>
    </measure>
    <measure number="10">
      <note><pitch><step>D</step><octave>4</octave></pitch><duration>1</duration><type>quarter</type><lyric><text>du</text></lyric></note>
      <note><pitch><step>A</step><octave>4</octave></pitch><duration>1</duration><type>quarter</type><lyric><text>vent</text></lyric></note>
      <note><pitch><step>G</step><octave>4</octave></pitch><duration>1</duration><type>quarter</type><lyric><text>me</text></lyric></note>
      <note><pitch><step>E</step><octave>4</octave></pitch><duration>1</duration><type>quarter</type><lyric><text>portent</text></lyric></note>
    </measure>
    <measure number="11"><direction placement="above"><direction-type><words>Bridge (head voice rising)</words></direction-type></direction>
      <note><pitch><step>B</step><octave>3</octave></pitch><duration>1</duration><type>quarter</type><lyric><text>Et</text></lyric></note>
      <note><pitch><step>D</step><octave>4</octave></pitch><duration>1</duration><type>quarter</type><lyric><text>je</text></lyric></note>
      <note><pitch><step>G</step><octave>4</octave></pitch><duration>1</duration><type>quarter</type><lyric><text>monte</text></lyric></note>
      <note><pitch><step>B</step><octave>4</octave></pitch><duration>1</duration><type>quarter</type><lyric><text>encor</text></lyric></note>
    </measure>
    <measure number="12">
      <note><pitch><step>A</step><octave>4</octave></pitch><duration>1</duration><type>quarter</type><lyric><text>e</text></lyric></note>
      <note><pitch><step>B</step><octave>4</octave></pitch><duration>1</duration><type>quarter</type><lyric><text>vers</text></lyric></note>
      <note><pitch><step>C</step><octave>5</octave></pitch><duration>1</duration><type>quarter</type><lyric><text>ta</text></lyric></note>
      <note><pitch><step>D</step><octave>5</octave></pitch><duration>1</duration><type>quarter</type><lyric><text>lumière</text></lyric></note>
    </measure>
    <measure number="13"><direction placement="above"><direction-type><words>Final Chorus (full mix)</words></direction-type></direction>
      <note><pitch><step>G</step><octave>4</octave></pitch><duration>1</duration><type>quarter</type><lyric><text>Les</text></lyric></note>
      <note><pitch><step>D</step><octave>5</octave></pitch><duration>1</duration><type>quarter</type><lyric><text>sou</text></lyric></note>
      <note><pitch><step>B</step><octave>4</octave></pitch><duration>1</duration><type>quarter</type><lyric><text>ve</text></lyric></note>
      <note><pitch><step>G</step><octave>4</octave></pitch><duration>1</duration><type>quarter</type><lyric><text>nirs</text></lyric></note>
    </measure>
    <measure number="14">
      <note><pitch><step>A</step><octave>4</octave></pitch><duration>1</duration><type>quarter</type><lyric><text>du</text></lyric></note>
      <note><pitch><step>B</step><octave>4</octave></pitch><duration>1</duration><type>quarter</type><lyric><text>vent</text></lyric></note>
      <note><pitch><step>G</step><octave>4</octave></pitch><duration>1</duration><type>quarter</type><lyric><text>nous</text></lyric></note>
      <note><pitch><step>E</step><octave>4</octave></pitch><duration>1</duration><type>quarter</type><lyric><text>rassemblent</text></lyric></note>
    </measure>
    <measure number="15">
      <note><pitch><step>D</step><octave>4</octave></pitch><duration>1</duration><type>quarter</type><lyric><text>Je</text></lyric></note>
      <note><pitch><step>G</step><octave>4</octave></pitch><duration>1</duration><type>quarter</type><lyric><text>garde</text></lyric></note>
      <note><pitch><step>A</step><octave>4</octave></pitch><duration>1</duration><type>quarter</type><lyric><text>ton</text></lyric></note>
      <note><pitch><step>B</step><octave>4</octave></pitch><duration>1</duration><type>quarter</type><lyric><text>nom</text></lyric></note>
    </measure>
    <measure number="16">
      <note><pitch><step>A</step><octave>4</octave></pitch><duration>1</duration><type>quarter</type><lyric><text>dans</text></lyric></note>
      <note><pitch><step>G</step><octave>4</octave></pitch><duration>1</duration><type>quarter</type><lyric><text>le</text></lyric></note>
      <note><pitch><step>E</step><octave>4</octave></pitch><duration>1</duration><type>quarter</type><lyric><text>sil</text></lyric></note>
      <note><pitch><step>D</step><octave>4</octave></pitch><duration>1</duration><type>quarter</type><lyric><text>ence</text></lyric></note>
    </measure>
    <measure number="17"><direction placement="above"><direction-type><words>Soft cinematic ending</words></direction-type></direction>
      <note><pitch><step>B</step><octave>3</octave></pitch><duration>2</duration><type>half</type><lyric><text>Le</text></lyric></note>
      <note><pitch><step>A</step><octave>3</octave></pitch><duration>2</duration><type>half</type><lyric><text>vent</text></lyric></note>
    </measure>
    <measure number="18"><note><pitch><step>G</step><octave>3</octave></pitch><duration>4</duration><type>whole</type><lyric><text>reste</text></lyric></note></measure>
    <measure number="19"><note><rest/><duration>2</duration><type>half</type></note><note><pitch><step>D</step><octave>4</octave></pitch><duration>2</duration><type>half</type><lyric><text>en</text></lyric></note></measure>
    <measure number="20"><note><pitch><step>G</step><octave>4</octave></pitch><duration>4</duration><type>whole</type><lyric><text>moi</text></lyric></note><barline location="right"><bar-style>light-heavy</bar-style></barline></measure>
  </part>

  <part id="P2">
    <measure number="1"><attributes><divisions>1</divisions><key><fifths>1</fifths></key><time><beats>4</beats><beat-type>4</beat-type></time><clef><sign>G</sign><line>2</line></clef></attributes>
      <note><pitch><step>B</step><octave>4</octave></pitch><duration>1</duration><type>quarter</type></note><note><pitch><step>D</step><octave>5</octave></pitch><duration>1</duration><type>quarter</type></note><note><pitch><step>G</step><octave>5</octave></pitch><duration>2</duration><type>half</type></note>
    </measure>
    <measure number="2"><note><pitch><step>A</step><octave>4</octave></pitch><duration>1</duration><type>quarter</type></note><note><pitch><step>D</step><octave>5</octave></pitch><duration>1</duration><type>quarter</type></note><note><pitch><step>F</step><alter>1</alter><octave>5</octave></pitch><duration>2</duration><type>half</type></note></measure>
    <measure number="3"><note><pitch><step>G</step><octave>4</octave></pitch><duration>1</duration><type>quarter</type></note><note><pitch><step>B</step><octave>4</octave></pitch><duration>1</duration><type>quarter</type></note><note><pitch><step>D</step><octave>5</octave></pitch><duration>1</duration><type>quarter</type></note><note><pitch><step>B</step><octave>4</octave></pitch><duration>1</duration><type>quarter</type></note></measure>
    <measure number="4"><note><pitch><step>A</step><octave>4</octave></pitch><duration>1</duration><type>quarter</type></note><note><pitch><step>C</step><octave>5</octave></pitch><duration>1</duration><type>quarter</type></note><note><pitch><step>E</step><octave>5</octave></pitch><duration>1</duration><type>quarter</type></note><note><pitch><step>C</step><octave>5</octave></pitch><duration>1</duration><type>quarter</type></note></measure>
    <measure number="5"><note><chord/><pitch><step>G</step><octave>4</octave></pitch><duration>4</duration><type>whole</type></note></measure>
    <measure number="6"><note><pitch><step>D</step><octave>5</octave></pitch><duration>4</duration><type>whole</type></note></measure>
    <measure number="7"><note><pitch><step>E</step><octave>5</octave></pitch><duration>1</duration><type>quarter</type></note><note><pitch><step>D</step><octave>5</octave></pitch><duration>1</duration><type>quarter</type></note><note><pitch><step>C</step><octave>5</octave></pitch><duration>1</duration><type>quarter</type></note><note><pitch><step>B</step><octave>4</octave></pitch><duration>1</duration><type>quarter</type></note></measure>
    <measure number="8"><note><pitch><step>A</step><octave>4</octave></pitch><duration>1</duration><type>quarter</type></note><note><pitch><step>C</step><octave>5</octave></pitch><duration>1</duration><type>quarter</type></note><note><pitch><step>D</step><octave>5</octave></pitch><duration>1</duration><type>quarter</type></note><note><pitch><step>B</step><octave>4</octave></pitch><duration>1</duration><type>quarter</type></note></measure>
    <measure number="9"><note><pitch><step>G</step><octave>5</octave></pitch><duration>4</duration><type>whole</type></note></measure>
    <measure number="10"><note><pitch><step>A</step><octave>5</octave></pitch><duration>4</duration><type>whole</type></note></measure>
    <measure number="11"><note><pitch><step>B</step><octave>4</octave></pitch><duration>1</duration><type>quarter</type></note><note><pitch><step>D</step><octave>5</octave></pitch><duration>1</duration><type>quarter</type></note><note><pitch><step>G</step><octave>5</octave></pitch><duration>1</duration><type>quarter</type></note><note><pitch><step>B</step><octave>5</octave></pitch><duration>1</duration><type>quarter</type></note></measure>
    <measure number="12"><note><pitch><step>A</step><octave>5</octave></pitch><duration>4</duration><type>whole</type></note></measure>
    <measure number="13"><note><pitch><step>B</step><octave>5</octave></pitch><duration>4</duration><type>whole</type></note></measure>
    <measure number="14"><note><pitch><step>A</step><octave>5</octave></pitch><duration>4</duration><type>whole</type></note></measure>
    <measure number="15"><note><pitch><step>G</step><octave>5</octave></pitch><duration>4</duration><type>whole</type></note></measure>
    <measure number="16"><note><pitch><step>E</step><octave>5</octave></pitch><duration>4</duration><type>whole</type></note></measure>
    <measure number="17"><note><pitch><step>D</step><octave>5</octave></pitch><duration>2</duration><type>half</type></note><note><pitch><step>B</step><octave>4</octave></pitch><duration>2</duration><type>half</type></note></measure>
    <measure number="18"><note><pitch><step>G</step><octave>4</octave></pitch><duration>4</duration><type>whole</type></note></measure>
    <measure number="19"><note><rest/><duration>4</duration><type>whole</type></note></measure>
    <measure number="20"><note><pitch><step>G</step><octave>4</octave></pitch><duration>4</duration><type>whole</type></note></measure>
  </part>

  <part id="P3">
    <measure number="1"><attributes><divisions>1</divisions><key><fifths>1</fifths></key><time><beats>4</beats><beat-type>4</beat-type></time><clef><sign>F</sign><line>4</line></clef></attributes><note><pitch><step>G</step><octave>2</octave></pitch><duration>4</duration><type>whole</type></note></measure>
    <measure number="2"><note><pitch><step>D</step><octave>2</octave></pitch><duration>4</duration><type>whole</type></note></measure>
    <measure number="3"><note><pitch><step>G</step><octave>2</octave></pitch><duration>4</duration><type>whole</type></note></measure>
    <measure number="4"><note><pitch><step>A</step><octave>2</octave></pitch><duration>4</duration><type>whole</type></note></measure>
    <measure number="5"><note><pitch><step>E</step><octave>2</octave></pitch><duration>4</duration><type>whole</type></note></measure>
    <measure number="6"><note><pitch><step>D</step><octave>2</octave></pitch><duration>4</duration><type>whole</type></note></measure>
    <measure number="7"><note><pitch><step>C</step><octave>3</octave></pitch><duration>4</duration><type>whole</type></note></measure>
    <measure number="8"><note><pitch><step>D</step><octave>2</octave></pitch><duration>4</duration><type>whole</type></note></measure>
    <measure number="9"><note><pitch><step>G</step><octave>2</octave></pitch><duration>4</duration><type>whole</type></note></measure>
    <measure number="10"><note><pitch><step>D</step><octave>2</octave></pitch><duration>4</duration><type>whole</type></note></measure>
    <measure number="11"><note><pitch><step>E</step><octave>2</octave></pitch><duration>4</duration><type>whole</type></note></measure>
    <measure number="12"><note><pitch><step>C</step><octave>3</octave></pitch><duration>4</duration><type>whole</type></note></measure>
    <measure number="13"><note><pitch><step>G</step><octave>2</octave></pitch><duration>4</duration><type>whole</type></note></measure>
    <measure number="14"><note><pitch><step>E</step><octave>2</octave></pitch><duration>4</duration><type>whole</type></note></measure>
    <measure number="15"><note><pitch><step>C</step><octave>3</octave></pitch><duration>4</duration><type>whole</type></note></measure>
    <measure number="16"><note><pitch><step>D</step><octave>2</octave></pitch><duration>4</duration><type>whole</type></note></measure>
    <measure number="17"><note><pitch><step>G</step><octave>2</octave></pitch><duration>4</duration><type>whole</type></note></measure>
    <measure number="18"><note><pitch><step>E</step><octave>2</octave></pitch><duration>4</duration><type>whole</type></note></measure>
    <measure number="19"><note><pitch><step>D</step><octave>2</octave></pitch><duration>4</duration><type>whole</type></note></measure>
    <measure number="20"><note><pitch><step>G</step><octave>2</octave></pitch><duration>4</duration><type>whole</type></note></measure>
  </part>

  <part id="P4">
    <measure number="1"><attributes><divisions>1</divisions><key><fifths>1</fifths></key><time><beats>4</beats><beat-type>4</beat-type></time><clef><sign>G</sign><line>2</line></clef></attributes><note><rest/><duration>4</duration><type>whole</type></note></measure>
    <measure number="2"><note><rest/><duration>4</duration><type>whole</type></note></measure>
    <measure number="3"><note><pitch><step>G</step><octave>3</octave></pitch><duration>1</duration><type>quarter</type></note><note><pitch><step>B</step><octave>3</octave></pitch><duration>1</duration><type>quarter</type></note><note><pitch><step>D</step><octave>4</octave></pitch><duration>1</duration><type>quarter</type></note><note><pitch><step>B</step><octave>3</octave></pitch><duration>1</duration><type>quarter</type></note></measure>
    <measure number="4"><note><pitch><step>A</step><octave>3</octave></pitch><duration>1</duration><type>quarter</type></note><note><pitch><step>C</step><octave>4</octave></pitch><duration>1</duration><type>quarter</type></note><note><pitch><step>E</step><octave>4</octave></pitch><duration>1</duration><type>quarter</type></note><note><pitch><step>C</step><octave>4</octave></pitch><duration>1</duration><type>quarter</type></note></measure>
    <measure number="5"><note><pitch><step>E</step><octave>3</octave></pitch><duration>4</duration><type>whole</type></note></measure>
    <measure number="6"><note><pitch><step>D</step><octave>3</octave></pitch><duration>4</duration><type>whole</type></note></measure>
    <measure number="7"><note><pitch><step>C</step><octave>4</octave></pitch><duration>4</duration><type>whole</type></note></measure>
    <measure number="8"><note><pitch><step>D</step><octave>3</octave></pitch><duration>4</duration><type>whole</type></note></measure>
    <measure number="9"><note><pitch><step>G</step><octave>3</octave></pitch><duration>4</duration><type>whole</type></note></measure>
    <measure number="10"><note><pitch><step>D</step><octave>3</octave></pitch><duration>4</duration><type>whole</type></note></measure>
    <measure number="11"><note><pitch><step>E</step><octave>3</octave></pitch><duration>4</duration><type>whole</type></note></measure>
    <measure number="12"><note><pitch><step>C</step><octave>4</octave></pitch><duration>4</duration><type>whole</type></note></measure>
    <measure number="13"><note><pitch><step>G</step><octave>3</octave></pitch><duration>4</duration><type>whole</type></note></measure>
    <measure number="14"><note><pitch><step>E</step><octave>3</octave></pitch><duration>4</duration><type>whole</type></note></measure>
    <measure number="15"><note><pitch><step>C</step><octave>4</octave></pitch><duration>4</duration><type>whole</type></note></measure>
    <measure number="16"><note><pitch><step>D</step><octave>3</octave></pitch><duration>4</duration><type>whole</type></note></measure>
    <measure number="17"><note><rest/><duration>4</duration><type>whole</type></note></measure>
    <measure number="18"><note><pitch><step>G</step><octave>3</octave></pitch><duration>4</duration><type>whole</type></note></measure>
    <measure number="19"><note><rest/><duration>4</duration><type>whole</type></note></measure>
    <measure number="20"><note><pitch><step>G</step><octave>3</octave></pitch><duration>4</duration><type>whole</type></note></measure>
  </part>

  <part id="P5">
    <measure number="1"><attributes><divisions>1</divisions><key><fifths>1</fifths></key><time><beats>4</beats><beat-type>4</beat-type></time><clef><sign>F</sign><line>4</line></clef></attributes><note><pitch><step>G</step><octave>2</octave></pitch><duration>4</duration><type>whole</type></note></measure>
    <measure number="2"><note><pitch><step>D</step><octave>2</octave></pitch><duration>4</duration><type>whole</type></note></measure>
    <measure number="3"><note><pitch><step>G</step><octave>2</octave></pitch><duration>4</duration><type>whole</type></note></measure>
    <measure number="4"><note><pitch><step>A</step><octave>2</octave></pitch><duration>4</duration><type>whole</type></note></measure>
    <measure number="5"><note><pitch><step>E</step><octave>2</octave></pitch><duration>4</duration><type>whole</type></note></measure>
    <measure number="6"><note><pitch><step>D</step><octave>2</octave></pitch><duration>4</duration><type>whole</type></note></measure>
    <measure number="7"><note><pitch><step>C</step><octave>3</octave></pitch><duration>4</duration><type>whole</type></note></measure>
    <measure number="8"><note><pitch><step>D</step><octave>2</octave></pitch><duration>4</duration><type>whole</type></note></measure>
    <measure number="9"><note><pitch><step>G</step><octave>2</octave></pitch><duration>4</duration><type>whole</type></note></measure>
    <measure number="10"><note><pitch><step>D</step><octave>2</octave></pitch><duration>4</duration><type>whole</type></note></measure>
    <measure number="11"><note><pitch><step>E</step><octave>2</octave></pitch><duration>4</duration><type>whole</type></note></measure>
    <measure number="12"><note><pitch><step>C</step><octave>3</octave></pitch><duration>4</duration><type>whole</type></note></measure>
    <measure number="13"><note><pitch><step>G</step><octave>2</octave></pitch><duration>4</duration><type>whole</type></note></measure>
    <measure number="14"><note><pitch><step>E</step><octave>2</octave></pitch><duration>4</duration><type>whole</type></note></measure>
    <measure number="15"><note><pitch><step>C</step><octave>3</octave></pitch><duration>4</duration><type>whole</type></note></measure>
    <measure number="16"><note><pitch><step>D</step><octave>2</octave></pitch><duration>4</duration><type>whole</type></note></measure>
    <measure number="17"><note><pitch><step>G</step><octave>2</octave></pitch><duration>4</duration><type>whole</type></note></measure>
    <measure number="18"><note><pitch><step>E</step><octave>2</octave></pitch><duration>4</duration><type>whole</type></note></measure>
    <measure number="19"><note><pitch><step>D</step><octave>2</octave></pitch><duration>4</duration><type>whole</type></note></measure>
    <measure number="20"><note><pitch><step>G</step><octave>2</octave></pitch><duration>4</duration><type>whole</type></note></measure>
  </part>

  <part id="P6">
    <measure number="1"><attributes><divisions>1</divisions><key><fifths>1</fifths></key><time><beats>4</beats><beat-type>4</beat-type></time><clef><sign>G</sign><line>2</line></clef></attributes><note><rest/><duration>4</duration><type>whole</type></note></measure>
    <measure number="2"><note><rest/><duration>4</duration><type>whole</type></note></measure>
    <measure number="3"><note><rest/><duration>4</duration><type>whole</type></note></measure>
    <measure number="4"><note><rest/><duration>4</duration><type>whole</type></note></measure>
    <measure number="5"><note><rest/><duration>4</duration><type>whole</type></note></measure>
    <measure number="6"><note><rest/><duration>4</duration><type>whole</type></note></measure>
    <measure number="7"><note><rest/><duration>4</duration><type>whole</type></note></measure>
    <measure number="8"><note><rest/><duration>4</duration><type>whole</type></note></measure>
    <measure number="9"><note><pitch><step>D</step><octave>5</octave></pitch><duration>4</duration><type>whole</type></note></measure>
    <measure number="10"><note><pitch><step>E</step><octave>5</octave></pitch><duration>4</duration><type>whole</type></note></measure>
    <measure number="11"><note><rest/><duration>4</duration><type>whole</type></note></measure>
    <measure number="12"><note><rest/><duration>4</duration><type>whole</type></note></measure>
    <measure number="13"><note><pitch><step>G</step><octave>5</octave></pitch><duration>4</duration><type>whole</type></note></measure>
    <measure number="14"><note><pitch><step>F</step><alter>1</alter><octave>5</octave></pitch><duration>4</duration><type>whole</type></note></measure>
    <measure number="15"><note><pitch><step>E</step><octave>5</octave></pitch><duration>4</duration><type>whole</type></note></measure>
    <measure number="16"><note><pitch><step>D</step><octave>5</octave></pitch><duration>4</duration><type>whole</type></note></measure>
    <measure number="17"><note><pitch><step>B</step><octave>4</octave></pitch><duration>4</duration><type>whole</type></note></measure>
    <measure number="18"><note><pitch><step>G</step><octave>4</octave></pitch><duration>4</duration><type>whole</type></note></measure>
    <measure number="19"><note><rest/><duration>4</duration><type>whole</type></note></measure>
    <measure number="20"><note><pitch><step>G</step><octave>4</octave></pitch><duration>4</duration><type>whole</type></note></measure>
  </part>
</score-partwise>
